<svg xmlns="http://www.w3.org/2000/svg" xmlns:xlink="http://www.w3.org/1999/xlink" width="500" zoomAndPan="magnify" viewBox="0 0 375 374.999991" height="500" preserveAspectRatio="xMidYMid meet" version="1.0"><defs><clipPath id="55b561f259"><path d="M 92.578125 81 L 109 81 L 109 102 L 92.578125 102 Z M 92.578125 81 " clip-rule="nonzero"/></clipPath><clipPath id="ad662d7674"><path d="M 92.578125 104 L 109 104 L 109 125 L 92.578125 125 Z M 92.578125 104 " clip-rule="nonzero"/></clipPath><clipPath id="3dcb70e163"><path d="M 92.578125 57 L 104 57 L 104 73 L 92.578125 73 Z M 92.578125 57 " clip-rule="nonzero"/></clipPath><clipPath id="da3c9a21e1"><path d="M 249 67 L 282.328125 67 L 282.328125 105 L 249 105 Z M 249 67 " clip-rule="nonzero"/></clipPath><clipPath id="73a40aeb84"><path d="M 92.578125 0 L 282.328125 0 L 282.328125 375 L 92.578125 375 Z M 92.578125 0 " clip-rule="nonzero"/></clipPath><clipPath id="0112023eaa"><path d="M 103 10 L 272 10 L 272 359 L 103 359 Z M 103 10 " clip-rule="nonzero"/></clipPath><clipPath id="127f013907"><path d="M 271.664062 31.296875 L 271.664062 337.933594 C 271.664062 349.472656 262.363281 358.890625 250.882812 358.890625 L 123.96875 358.890625 C 112.488281 358.890625 103.1875 349.527344 103.1875 337.933594 L 103.1875 31.296875 C 103.1875 19.757812 112.488281 10.339844 123.96875 10.339844 L 146.925781 10.339844 C 151.277344 10.339844 155.519531 11.863281 158.894531 14.585938 C 162.101562 17.199219 165.855469 18.667969 169.828125 18.667969 L 205.078125 18.667969 C 209.050781 18.667969 212.804688 17.199219 216.011719 14.585938 C 219.441406 11.863281 223.628906 10.339844 227.980469 10.339844 L 250.9375 10.339844 C 255.070312 10.339844 258.933594 11.539062 262.144531 13.660156 C 267.855469 17.417969 271.664062 23.894531 271.664062 31.296875 Z M 271.664062 31.296875 " clip-rule="nonzero"/></clipPath><linearGradient x1="195.100017" gradientTransform="matrix(0.543998, 0, 0, 0.544267, -2.946272, -2.99347)" y1="344.73999" x2="504.800006" gradientUnits="userSpaceOnUse" y2="344.73999" id="343e2b20be"><stop stop-opacity="1" stop-color="rgb(54.899597%, 84.709167%, 83.918762%)" offset="0"/><stop stop-opacity="1" stop-color="rgb(54.76532%, 84.552002%, 83.782959%)" offset="0.0078125"/><stop stop-opacity="1" stop-color="rgb(54.472351%, 84.208679%, 83.485413%)" offset="0.015625"/><stop stop-opacity="1" stop-color="rgb(54.156494%, 83.837891%, 83.163452%)" offset="0.0234375"/><stop stop-opacity="1" stop-color="rgb(53.840637%, 83.465576%, 82.841492%)" offset="0.03125"/><stop stop-opacity="1" stop-color="rgb(53.52478%, 83.094788%, 82.519531%)" offset="0.0390625"/><stop stop-opacity="1" stop-color="rgb(53.208923%, 82.723999%, 82.196045%)" offset="0.046875"/><stop stop-opacity="1" stop-color="rgb(52.893066%, 82.35321%, 81.874084%)" offset="0.0546875"/><stop stop-opacity="1" stop-color="rgb(52.577209%, 81.980896%, 81.552124%)" offset="0.0625"/><stop stop-opacity="1" stop-color="rgb(52.261353%, 81.610107%, 81.230164%)" offset="0.0703125"/><stop stop-opacity="1" stop-color="rgb(51.945496%, 81.239319%, 80.908203%)" offset="0.078125"/><stop stop-opacity="1" stop-color="rgb(51.629639%, 80.86853%, 80.586243%)" offset="0.0859375"/><stop stop-opacity="1" stop-color="rgb(51.313782%, 80.496216%, 80.264282%)" offset="0.09375"/><stop stop-opacity="1" stop-color="rgb(50.997925%, 80.125427%, 79.942322%)" offset="0.101562"/><stop stop-opacity="1" stop-color="rgb(50.682068%, 79.754639%, 79.620361%)" offset="0.109375"/><stop stop-opacity="1" stop-color="rgb(50.366211%, 79.38385%, 79.298401%)" offset="0.117188"/><stop stop-opacity="1" stop-color="rgb(50.050354%, 79.011536%, 78.97644%)" offset="0.125"/><stop stop-opacity="1" stop-color="rgb(49.734497%, 78.640747%, 78.65448%)" offset="0.132813"/><stop stop-opacity="1" stop-color="rgb(49.41864%, 78.269958%, 78.33252%)" offset="0.140625"/><stop stop-opacity="1" stop-color="rgb(49.102783%, 77.89917%, 78.010559%)" offset="0.148438"/><stop stop-opacity="1" stop-color="rgb(48.786926%, 77.526855%, 77.688599%)" offset="0.15625"/><stop stop-opacity="1" stop-color="rgb(48.471069%, 77.156067%, 77.366638%)" offset="0.164063"/><stop stop-opacity="1" stop-color="rgb(48.155212%, 76.785278%, 77.044678%)" offset="0.171875"/><stop stop-opacity="1" stop-color="rgb(47.839355%, 76.41449%, 76.722717%)" offset="0.179688"/><stop stop-opacity="1" stop-color="rgb(47.523499%, 76.042175%, 76.400757%)" offset="0.1875"/><stop stop-opacity="1" stop-color="rgb(47.207642%, 75.671387%, 76.078796%)" offset="0.195313"/><stop stop-opacity="1" stop-color="rgb(46.891785%, 75.300598%, 75.756836%)" offset="0.203125"/><stop stop-opacity="1" stop-color="rgb(46.575928%, 74.92981%, 75.434875%)" offset="0.210938"/><stop stop-opacity="1" stop-color="rgb(46.260071%, 74.557495%, 75.112915%)" offset="0.21875"/><stop stop-opacity="1" stop-color="rgb(45.944214%, 74.186707%, 74.790955%)" offset="0.226563"/><stop stop-opacity="1" stop-color="rgb(45.628357%, 73.815918%, 74.468994%)" offset="0.234375"/><stop stop-opacity="1" stop-color="rgb(45.3125%, 73.445129%, 74.147034%)" offset="0.242188"/><stop stop-opacity="1" stop-color="rgb(44.996643%, 73.072815%, 73.825073%)" offset="0.25"/><stop stop-opacity="1" stop-color="rgb(44.680786%, 72.702026%, 73.503113%)" offset="0.257812"/><stop stop-opacity="1" stop-color="rgb(44.364929%, 72.331238%, 73.181152%)" offset="0.265625"/><stop stop-opacity="1" stop-color="rgb(44.049072%, 71.960449%, 72.859192%)" offset="0.273438"/><stop stop-opacity="1" stop-color="rgb(43.733215%, 71.588135%, 72.537231%)" offset="0.28125"/><stop stop-opacity="1" stop-color="rgb(43.417358%, 71.217346%, 72.215271%)" offset="0.289062"/><stop stop-opacity="1" stop-color="rgb(43.101501%, 70.846558%, 71.893311%)" offset="0.296875"/><stop stop-opacity="1" stop-color="rgb(42.785645%, 70.475769%, 71.57135%)" offset="0.304688"/><stop stop-opacity="1" stop-color="rgb(42.469788%, 70.103455%, 71.24939%)" offset="0.3125"/><stop stop-opacity="1" stop-color="rgb(42.153931%, 69.732666%, 70.927429%)" offset="0.320312"/><stop stop-opacity="1" stop-color="rgb(41.838074%, 69.361877%, 70.605469%)" offset="0.328125"/><stop stop-opacity="1" stop-color="rgb(41.522217%, 68.991089%, 70.283508%)" offset="0.335938"/><stop stop-opacity="1" stop-color="rgb(41.20636%, 68.618774%, 69.961548%)" offset="0.34375"/><stop stop-opacity="1" stop-color="rgb(40.890503%, 68.247986%, 69.639587%)" offset="0.351562"/><stop stop-opacity="1" stop-color="rgb(40.574646%, 67.877197%, 69.317627%)" offset="0.359375"/><stop stop-opacity="1" stop-color="rgb(40.258789%, 67.506409%, 68.995667%)" offset="0.367188"/><stop stop-opacity="1" stop-color="rgb(39.942932%, 67.134094%, 68.673706%)" offset="0.375"/><stop stop-opacity="1" stop-color="rgb(39.627075%, 66.763306%, 68.351746%)" offset="0.382812"/><stop stop-opacity="1" stop-color="rgb(39.311218%, 66.392517%, 68.029785%)" offset="0.390625"/><stop stop-opacity="1" stop-color="rgb(38.995361%, 66.021729%, 67.707825%)" offset="0.398437"/><stop stop-opacity="1" stop-color="rgb(38.679504%, 65.649414%, 67.385864%)" offset="0.40625"/><stop stop-opacity="1" stop-color="rgb(38.363647%, 65.278625%, 67.063904%)" offset="0.414062"/><stop stop-opacity="1" stop-color="rgb(38.047791%, 64.907837%, 66.741943%)" offset="0.421875"/><stop stop-opacity="1" stop-color="rgb(37.731934%, 64.537048%, 66.419983%)" offset="0.429687"/><stop stop-opacity="1" stop-color="rgb(37.416077%, 64.164734%, 66.098022%)" offset="0.4375"/><stop stop-opacity="1" stop-color="rgb(37.10022%, 63.793945%, 65.776062%)" offset="0.445312"/><stop stop-opacity="1" stop-color="rgb(36.784363%, 63.423157%, 65.454102%)" offset="0.453125"/><stop stop-opacity="1" stop-color="rgb(36.468506%, 63.052368%, 65.132141%)" offset="0.460937"/><stop stop-opacity="1" stop-color="rgb(36.152649%, 62.680054%, 64.810181%)" offset="0.46875"/><stop stop-opacity="1" stop-color="rgb(35.836792%, 62.309265%, 64.48822%)" offset="0.476562"/><stop stop-opacity="1" stop-color="rgb(35.520935%, 61.938477%, 64.16626%)" offset="0.484375"/><stop stop-opacity="1" stop-color="rgb(35.203552%, 61.567688%, 63.844299%)" offset="0.492187"/><stop stop-opacity="1" stop-color="rgb(34.887695%, 61.195374%, 63.522339%)" offset="0.5"/><stop stop-opacity="1" stop-color="rgb(34.571838%, 60.824585%, 63.200378%)" offset="0.507813"/><stop stop-opacity="1" stop-color="rgb(34.255981%, 60.453796%, 62.878418%)" offset="0.515625"/><stop stop-opacity="1" stop-color="rgb(33.940125%, 60.083008%, 62.556458%)" offset="0.523438"/><stop stop-opacity="1" stop-color="rgb(33.624268%, 59.710693%, 62.234497%)" offset="0.53125"/><stop stop-opacity="1" stop-color="rgb(33.308411%, 59.339905%, 61.912537%)" offset="0.539063"/><stop stop-opacity="1" stop-color="rgb(32.992554%, 58.969116%, 61.590576%)" offset="0.546875"/><stop stop-opacity="1" stop-color="rgb(32.676697%, 58.598328%, 61.268616%)" offset="0.554688"/><stop stop-opacity="1" stop-color="rgb(32.36084%, 58.226013%, 60.946655%)" offset="0.5625"/><stop stop-opacity="1" stop-color="rgb(32.044983%, 57.855225%, 60.624695%)" offset="0.570313"/><stop stop-opacity="1" stop-color="rgb(31.729126%, 57.484436%, 60.302734%)" offset="0.578125"/><stop stop-opacity="1" stop-color="rgb(31.413269%, 57.113647%, 59.980774%)" offset="0.585938"/><stop stop-opacity="1" stop-color="rgb(31.097412%, 56.741333%, 59.658813%)" offset="0.59375"/><stop stop-opacity="1" stop-color="rgb(30.781555%, 56.370544%, 59.336853%)" offset="0.601563"/><stop stop-opacity="1" stop-color="rgb(30.465698%, 55.999756%, 59.014893%)" offset="0.609375"/><stop stop-opacity="1" stop-color="rgb(30.149841%, 55.628967%, 58.692932%)" offset="0.617188"/><stop stop-opacity="1" stop-color="rgb(29.833984%, 55.256653%, 58.370972%)" offset="0.625"/><stop stop-opacity="1" stop-color="rgb(29.518127%, 54.885864%, 58.049011%)" offset="0.632813"/><stop stop-opacity="1" stop-color="rgb(29.202271%, 54.515076%, 57.727051%)" offset="0.640625"/><stop stop-opacity="1" stop-color="rgb(28.886414%, 54.144287%, 57.40509%)" offset="0.648438"/><stop stop-opacity="1" stop-color="rgb(28.570557%, 53.771973%, 57.08313%)" offset="0.65625"/><stop stop-opacity="1" stop-color="rgb(28.2547%, 53.401184%, 56.761169%)" offset="0.664063"/><stop stop-opacity="1" stop-color="rgb(27.938843%, 53.030396%, 56.439209%)" offset="0.671875"/><stop stop-opacity="1" stop-color="rgb(27.622986%, 52.659607%, 56.115723%)" offset="0.679688"/><stop stop-opacity="1" stop-color="rgb(27.307129%, 52.287292%, 55.793762%)" offset="0.6875"/><stop stop-opacity="1" stop-color="rgb(26.991272%, 51.916504%, 55.471802%)" offset="0.695313"/><stop stop-opacity="1" stop-color="rgb(26.675415%, 51.545715%, 55.149841%)" offset="0.703125"/><stop stop-opacity="1" stop-color="rgb(26.359558%, 51.174927%, 54.827881%)" offset="0.710938"/><stop stop-opacity="1" stop-color="rgb(26.043701%, 50.802612%, 54.50592%)" offset="0.71875"/><stop stop-opacity="1" stop-color="rgb(25.727844%, 50.431824%, 54.18396%)" offset="0.726563"/><stop stop-opacity="1" stop-color="rgb(25.411987%, 50.061035%, 53.862%)" offset="0.734375"/><stop stop-opacity="1" stop-color="rgb(25.09613%, 49.690247%, 53.540039%)" offset="0.742188"/><stop stop-opacity="1" stop-color="rgb(24.780273%, 49.317932%, 53.218079%)" offset="0.75"/><stop stop-opacity="1" stop-color="rgb(24.464417%, 48.947144%, 52.896118%)" offset="0.757812"/><stop stop-opacity="1" stop-color="rgb(24.14856%, 48.576355%, 52.574158%)" offset="0.765625"/><stop stop-opacity="1" stop-color="rgb(23.832703%, 48.205566%, 52.252197%)" offset="0.773438"/><stop stop-opacity="1" stop-color="rgb(23.516846%, 47.833252%, 51.930237%)" offset="0.78125"/><stop stop-opacity="1" stop-color="rgb(23.200989%, 47.462463%, 51.608276%)" offset="0.789062"/><stop stop-opacity="1" stop-color="rgb(22.885132%, 47.091675%, 51.286316%)" offset="0.796875"/><stop stop-opacity="1" stop-color="rgb(22.569275%, 46.720886%, 50.964355%)" offset="0.804688"/><stop stop-opacity="1" stop-color="rgb(22.253418%, 46.348572%, 50.642395%)" offset="0.8125"/><stop stop-opacity="1" stop-color="rgb(21.937561%, 45.977783%, 50.320435%)" offset="0.820312"/><stop stop-opacity="1" stop-color="rgb(21.621704%, 45.606995%, 49.998474%)" offset="0.828125"/><stop stop-opacity="1" stop-color="rgb(21.305847%, 45.236206%, 49.676514%)" offset="0.835938"/><stop stop-opacity="1" stop-color="rgb(20.98999%, 44.863892%, 49.354553%)" offset="0.84375"/><stop stop-opacity="1" stop-color="rgb(20.674133%, 44.493103%, 49.032593%)" offset="0.851562"/><stop stop-opacity="1" stop-color="rgb(20.358276%, 44.122314%, 48.710632%)" offset="0.859375"/><stop stop-opacity="1" stop-color="rgb(20.042419%, 43.751526%, 48.388672%)" offset="0.867188"/><stop stop-opacity="1" stop-color="rgb(19.726562%, 43.379211%, 48.066711%)" offset="0.875"/><stop stop-opacity="1" stop-color="rgb(19.410706%, 43.008423%, 47.744751%)" offset="0.882812"/><stop stop-opacity="1" stop-color="rgb(19.094849%, 42.637634%, 47.422791%)" offset="0.890625"/><stop stop-opacity="1" stop-color="rgb(18.778992%, 42.266846%, 47.10083%)" offset="0.898438"/><stop stop-opacity="1" stop-color="rgb(18.463135%, 41.894531%, 46.77887%)" offset="0.90625"/><stop stop-opacity="1" stop-color="rgb(18.147278%, 41.523743%, 46.456909%)" offset="0.914062"/><stop stop-opacity="1" stop-color="rgb(17.831421%, 41.152954%, 46.134949%)" offset="0.921875"/><stop stop-opacity="1" stop-color="rgb(17.515564%, 40.782166%, 45.812988%)" offset="0.929688"/><stop stop-opacity="1" stop-color="rgb(17.199707%, 40.409851%, 45.491028%)" offset="0.9375"/><stop stop-opacity="1" stop-color="rgb(16.88385%, 40.039062%, 45.169067%)" offset="0.945312"/><stop stop-opacity="1" stop-color="rgb(16.567993%, 39.668274%, 44.847107%)" offset="0.953125"/><stop stop-opacity="1" stop-color="rgb(16.252136%, 39.297485%, 44.525146%)" offset="0.960938"/><stop stop-opacity="1" stop-color="rgb(15.936279%, 38.925171%, 44.203186%)" offset="0.96875"/><stop stop-opacity="1" stop-color="rgb(15.620422%, 38.554382%, 43.881226%)" offset="0.976562"/><stop stop-opacity="1" stop-color="rgb(15.304565%, 38.183594%, 43.559265%)" offset="0.984375"/><stop stop-opacity="1" stop-color="rgb(14.988708%, 37.812805%, 43.237305%)" offset="0.992188"/><stop stop-opacity="1" stop-color="rgb(14.672852%, 37.440491%, 42.915344%)" offset="1"/></linearGradient></defs><g clip-path="url(#55b561f259)"><path fill="#231f20" d="M 107.105469 101.234375 L 94.375 101.234375 C 93.394531 101.234375 92.632812 100.472656 92.632812 99.492188 L 92.632812 83.652344 C 92.632812 82.675781 93.394531 81.914062 94.375 81.914062 L 107.105469 81.914062 C 108.082031 81.914062 108.84375 82.675781 108.84375 83.652344 L 108.84375 99.492188 C 108.84375 100.472656 108.03125 101.234375 107.105469 101.234375 Z M 107.105469 101.234375 " fill-opacity="1" fill-rule="nonzero"/></g><g clip-path="url(#ad662d7674)"><path fill="#231f20" d="M 107.105469 124.203125 L 94.375 124.203125 C 93.394531 124.203125 92.632812 123.441406 92.632812 122.460938 L 92.632812 106.621094 C 92.632812 105.640625 93.394531 104.878906 94.375 104.878906 L 107.105469 104.878906 C 108.082031 104.878906 108.84375 105.640625 108.84375 106.621094 L 108.84375 122.460938 C 108.84375 123.441406 108.03125 124.203125 107.105469 124.203125 Z M 107.105469 124.203125 " fill-opacity="1" fill-rule="nonzero"/></g><g clip-path="url(#3dcb70e163)"><path fill="#231f20" d="M 101.664062 72.441406 L 94.210938 72.441406 C 93.339844 72.441406 92.632812 71.734375 92.632812 70.863281 L 92.632812 58.671875 C 92.632812 57.800781 93.339844 57.09375 94.210938 57.09375 L 101.664062 57.09375 C 102.535156 57.09375 103.242188 57.800781 103.242188 58.671875 L 103.242188 70.863281 C 103.1875 71.734375 102.480469 72.441406 101.664062 72.441406 Z M 101.664062 72.441406 " fill-opacity="1" fill-rule="nonzero"/></g><g clip-path="url(#da3c9a21e1)"><path fill="#231f20" d="M 282.273438 72.007812 L 282.273438 100.308594 C 282.273438 101.667969 281.671875 102.867188 280.75 103.683594 C 280.257812 104.117188 279.714844 104.445312 279.117188 104.664062 C 278.679688 104.824219 278.246094 104.878906 277.757812 104.878906 L 253.765625 104.878906 C 251.265625 104.878906 249.25 102.8125 249.25 100.308594 L 249.25 72.007812 C 249.25 69.503906 251.265625 67.433594 253.765625 67.433594 L 277.757812 67.433594 C 278.246094 67.433594 278.679688 67.488281 279.117188 67.652344 C 279.714844 67.871094 280.3125 68.195312 280.75 68.632812 C 281.671875 69.449219 282.273438 70.644531 282.273438 72.007812 Z M 282.273438 72.007812 " fill-opacity="1" fill-rule="nonzero"/></g><path fill="#231f20" d="M 280.75 32.382812 L 280.75 342.617188 C 280.75 360.523438 266.386719 375 248.597656 375 L 126.253906 375 C 111.292969 375 98.671875 364.660156 95.136719 350.671875 C 94.484375 348.113281 94.101562 345.390625 94.101562 342.617188 L 94.101562 32.382812 C 94.101562 14.476562 108.464844 0 126.253906 0 L 248.597656 0 C 255.125 0 261.164062 1.960938 266.222656 5.332031 C 274.984375 11.101562 280.75 21.0625 280.75 32.382812 Z M 280.75 32.382812 " fill-opacity="1" fill-rule="nonzero"/><path fill="#231f20" d="M 279.117188 34.125 L 279.117188 338.859375 C 279.117188 356.441406 264.972656 370.699219 247.566406 370.699219 L 127.339844 370.699219 C 109.933594 370.699219 95.789062 356.441406 95.789062 338.859375 L 95.789062 34.125 C 95.789062 16.546875 109.933594 2.285156 127.339844 2.285156 L 247.566406 2.285156 C 264.972656 2.285156 279.117188 16.546875 279.117188 34.125 Z M 279.117188 34.125 " fill-opacity="1" fill-rule="nonzero"/><g clip-path="url(#73a40aeb84)"><path stroke-linecap="butt" transform="matrix(0.543998, 0, 0, 0.544267, -2.946272, -2.993469)" fill="none" stroke-linejoin="miter" d="M 518.50068 68.199004 L 518.50068 628.097663 C 518.50068 660.401717 492.49962 686.598073 460.502733 686.598073 L 239.49731 686.598073 C 207.500423 686.598073 181.499363 660.401717 181.499363 628.097663 L 181.499363 68.199004 C 181.499363 35.902127 207.500423 9.698594 239.49731 9.698594 L 460.502733 9.698594 C 492.49962 9.698594 518.50068 35.902127 518.50068 68.199004 Z M 518.50068 68.199004 " stroke="#808080" stroke-width="1.829" stroke-opacity="1" stroke-miterlimit="10"/></g><g clip-path="url(#0112023eaa)"><g clip-path="url(#127f013907)"><path fill="url(#343e2b20be)" d="M 103.1875 10.339844 L 103.1875 358.890625 L 271.664062 358.890625 L 271.664062 10.339844 Z M 103.1875 10.339844 " fill-rule="nonzero"/></g></g><path fill="#4c5156" d="M 193.054688 11.046875 C 193.054688 11.421875 193.019531 11.789062 192.949219 12.152344 C 192.875 12.515625 192.769531 12.871094 192.628906 13.214844 C 192.488281 13.558594 192.316406 13.882812 192.113281 14.191406 C 191.90625 14.503906 191.675781 14.789062 191.414062 15.050781 C 191.15625 15.3125 190.871094 15.546875 190.566406 15.753906 C 190.261719 15.960938 189.9375 16.136719 189.597656 16.277344 C 189.257812 16.421875 188.90625 16.527344 188.546875 16.601562 C 188.183594 16.671875 187.820312 16.710938 187.453125 16.710938 C 187.085938 16.710938 186.722656 16.671875 186.359375 16.601562 C 186 16.527344 185.648438 16.421875 185.308594 16.277344 C 184.96875 16.136719 184.644531 15.960938 184.339844 15.753906 C 184.035156 15.546875 183.75 15.3125 183.492188 15.050781 C 183.230469 14.789062 183 14.503906 182.792969 14.191406 C 182.589844 13.882812 182.417969 13.558594 182.277344 13.214844 C 182.136719 12.871094 182.03125 12.515625 181.957031 12.152344 C 181.886719 11.789062 181.851562 11.421875 181.851562 11.046875 C 181.851562 10.675781 181.886719 10.308594 181.957031 9.945312 C 182.03125 9.578125 182.136719 9.226562 182.277344 8.882812 C 182.417969 8.539062 182.589844 8.214844 182.792969 7.902344 C 183 7.59375 183.230469 7.308594 183.492188 7.046875 C 183.75 6.785156 184.035156 6.546875 184.339844 6.34375 C 184.644531 6.136719 184.96875 5.960938 185.308594 5.820312 C 185.648438 5.675781 186 5.570312 186.359375 5.496094 C 186.722656 5.425781 187.085938 5.386719 187.453125 5.386719 C 187.820312 5.386719 188.183594 5.425781 188.546875 5.496094 C 188.90625 5.570312 189.257812 5.675781 189.597656 5.820312 C 189.9375 5.960938 190.261719 6.136719 190.566406 6.34375 C 190.871094 6.546875 191.15625 6.785156 191.414062 7.046875 C 191.675781 7.308594 191.90625 7.59375 192.113281 7.902344 C 192.316406 8.214844 192.488281 8.539062 192.628906 8.882812 C 192.769531 9.226562 192.875 9.578125 192.949219 9.945312 C 193.019531 10.308594 193.054688 10.675781 193.054688 11.046875 Z M 193.054688 11.046875 " fill-opacity="1" fill-rule="nonzero"/><path fill="#ffffff" d="M 271.664062 31.457031 L 271.664062 338.097656 C 271.664062 349.636719 262.363281 359.054688 250.882812 359.054688 L 123.96875 359.054688 C 112.488281 359.054688 103.1875 349.691406 103.1875 338.097656 L 103.1875 334.5625 L 262.144531 13.824219 C 267.855469 17.578125 271.664062 24.054688 271.664062 31.457031 Z M 271.664062 31.457031 " fill-opacity="0.14" fill-rule="nonzero"/><path fill="#ffffff" d="M 256.214844 14.96875 C 254.257812 14.152344 252.082031 14.152344 250.121094 14.96875 C 250.011719 15.023438 249.851562 14.96875 249.796875 14.859375 C 249.742188 14.75 249.6875 14.585938 249.632812 14.476562 C 249.578125 14.367188 249.632812 14.207031 249.742188 14.152344 C 251.917969 13.226562 254.363281 13.226562 256.539062 14.152344 C 256.648438 14.207031 256.703125 14.367188 256.648438 14.476562 C 256.59375 14.585938 256.539062 14.75 256.488281 14.859375 C 256.433594 14.96875 256.324219 15.023438 256.214844 14.96875 Z M 256.214844 14.96875 " fill-opacity="1" fill-rule="nonzero"/><path fill="#ffffff" d="M 255.34375 16.273438 C 253.929688 15.730469 252.40625 15.730469 250.992188 16.273438 C 250.882812 16.328125 250.71875 16.273438 250.664062 16.164062 C 250.609375 16.054688 250.558594 15.894531 250.503906 15.785156 C 250.449219 15.675781 250.503906 15.511719 250.609375 15.457031 C 252.242188 14.804688 254.039062 14.804688 255.671875 15.457031 C 255.78125 15.511719 255.832031 15.675781 255.78125 15.785156 C 255.726562 15.894531 255.671875 16.054688 255.617188 16.164062 C 255.617188 16.273438 255.453125 16.328125 255.34375 16.273438 Z M 255.34375 16.273438 " fill-opacity="1" fill-rule="nonzero"/><path fill="#ffffff" d="M 254.527344 17.742188 C 253.65625 17.417969 252.679688 17.417969 251.808594 17.742188 C 251.699219 17.796875 251.535156 17.742188 251.480469 17.632812 C 251.425781 17.527344 251.371094 17.363281 251.320312 17.253906 C 251.265625 17.144531 251.320312 16.980469 251.480469 16.925781 C 252.570312 16.492188 253.765625 16.492188 254.910156 16.925781 C 255.019531 16.980469 255.125 17.144531 255.070312 17.253906 C 255.019531 17.363281 254.964844 17.527344 254.910156 17.632812 C 254.746094 17.742188 254.636719 17.796875 254.527344 17.742188 Z M 254.527344 17.742188 " fill-opacity="1" fill-rule="nonzero"/><path fill="#ffffff" d="M 253.765625 18.558594 C 253.765625 18.886719 253.496094 19.15625 253.167969 19.15625 C 252.839844 19.15625 252.570312 18.886719 252.570312 18.558594 C 252.570312 18.234375 252.839844 17.960938 253.167969 17.960938 C 253.496094 17.960938 253.765625 18.234375 253.765625 18.558594 Z M 253.765625 18.558594 " fill-opacity="1" fill-rule="nonzero"/><path fill="#ffffff" d="M 239.078125 18.722656 L 239.078125 17.144531 C 239.078125 17.089844 239.023438 17.089844 239.023438 17.089844 L 238.046875 17.089844 C 237.992188 17.089844 237.992188 17.144531 237.992188 17.144531 L 237.992188 18.722656 C 237.992188 18.777344 238.046875 18.777344 238.046875 18.777344 L 238.96875 18.777344 C 239.023438 18.777344 239.078125 18.777344 239.078125 18.722656 Z M 239.078125 18.722656 " fill-opacity="1" fill-rule="nonzero"/><path fill="#ffffff" d="M 240.492188 18.722656 L 240.492188 16.328125 C 240.492188 16.273438 240.4375 16.273438 240.4375 16.273438 L 239.515625 16.273438 C 239.460938 16.273438 239.460938 16.328125 239.460938 16.328125 L 239.460938 18.722656 C 239.460938 18.777344 239.515625 18.777344 239.515625 18.777344 L 240.4375 18.777344 C 240.4375 18.777344 240.492188 18.777344 240.492188 18.722656 Z M 240.492188 18.722656 " fill-opacity="1" fill-rule="nonzero"/><path fill="#ffffff" d="M 241.90625 18.722656 L 241.90625 15.511719 C 241.90625 15.457031 241.851562 15.457031 241.851562 15.457031 L 240.929688 15.457031 C 240.875 15.457031 240.875 15.511719 240.875 15.511719 L 240.875 18.722656 C 240.875 18.777344 240.929688 18.777344 240.929688 18.777344 L 241.851562 18.777344 C 241.851562 18.777344 241.90625 18.777344 241.90625 18.722656 Z M 241.90625 18.722656 " fill-opacity="1" fill-rule="nonzero"/><path fill="#ffffff" d="M 243.320312 18.722656 L 243.320312 14.75 C 243.320312 14.695312 243.265625 14.695312 243.265625 14.695312 L 242.34375 14.695312 C 242.289062 14.695312 242.289062 14.75 242.289062 14.75 L 242.289062 18.722656 C 242.289062 18.777344 242.34375 18.777344 242.34375 18.777344 L 243.265625 18.777344 C 243.265625 18.777344 243.320312 18.777344 243.320312 18.722656 Z M 243.320312 18.722656 " fill-opacity="1" fill-rule="nonzero"/><path fill="#ffffff" d="M 244.734375 18.722656 L 244.734375 13.933594 C 244.734375 13.878906 244.683594 13.878906 244.683594 13.878906 L 243.757812 13.878906 C 243.703125 13.878906 243.703125 13.933594 243.703125 13.933594 L 243.703125 18.722656 C 243.703125 18.777344 243.757812 18.777344 243.757812 18.777344 L 244.683594 18.777344 C 244.683594 18.777344 244.734375 18.777344 244.734375 18.722656 Z M 244.734375 18.722656 " fill-opacity="1" fill-rule="nonzero"/><path fill="#ffffff" d="M 231.570312 13.824219 L 223.195312 13.824219 C 222.757812 13.824219 222.378906 14.207031 222.378906 14.640625 L 222.378906 18.015625 C 222.378906 18.449219 222.757812 18.832031 223.195312 18.832031 L 231.570312 18.832031 C 232.007812 18.832031 232.386719 18.449219 232.386719 18.015625 L 232.386719 14.640625 C 232.386719 14.152344 232.0625 13.824219 231.570312 13.824219 Z M 231.625 18.289062 L 230.320312 18.289062 L 230.320312 14.3125 L 231.625 14.3125 C 231.84375 14.3125 232.007812 14.476562 232.007812 14.695312 L 232.007812 17.90625 C 232.007812 18.125 231.84375 18.289062 231.625 18.289062 Z M 231.625 18.289062 " fill-opacity="1" fill-rule="nonzero"/><path fill="#ffffff" d="M 232.984375 18.289062 L 232.496094 18.015625 C 232.496094 18.015625 232.441406 17.960938 232.441406 17.960938 L 232.441406 14.640625 C 232.441406 14.585938 232.441406 14.585938 232.496094 14.585938 L 232.984375 14.3125 C 233.039062 14.3125 233.09375 14.3125 233.09375 14.367188 L 233.09375 18.179688 C 233.09375 18.289062 233.039062 18.34375 232.984375 18.289062 Z M 232.984375 18.289062 " fill-opacity="1" fill-rule="nonzero"/><path fill="#ffffff" d="M 163.898438 100.527344 C 163.898438 109.886719 160.472656 115.113281 154.378906 115.113281 C 149.046875 115.113281 145.402344 110.050781 145.347656 100.960938 C 145.347656 91.710938 149.320312 86.59375 154.867188 86.59375 C 160.632812 86.59375 163.898438 91.761719 163.898438 100.527344 Z M 149.046875 100.960938 C 149.046875 108.144531 151.222656 112.226562 154.59375 112.226562 C 158.402344 112.226562 160.199219 107.765625 160.199219 100.742188 C 160.199219 93.941406 158.457031 89.476562 154.648438 89.476562 C 151.386719 89.476562 149.046875 93.449219 149.046875 100.960938 Z M 149.046875 100.960938 " fill-opacity="1" fill-rule="nonzero"/><path fill="#ffffff" d="M 167 107.65625 C 167 104.171875 169.066406 101.722656 172.4375 100.253906 L 172.382812 100.144531 C 169.339844 98.675781 168.03125 96.335938 168.03125 93.941406 C 168.03125 89.585938 171.675781 86.59375 176.519531 86.59375 C 181.851562 86.59375 184.460938 89.96875 184.460938 93.394531 C 184.460938 95.738281 183.320312 98.238281 179.945312 99.871094 L 179.945312 99.980469 C 183.375 101.34375 185.441406 103.738281 185.441406 107.113281 C 185.441406 111.902344 181.359375 115.113281 176.136719 115.113281 C 170.425781 115.113281 167 111.683594 167 107.65625 Z M 181.6875 107.4375 C 181.6875 104.0625 179.347656 102.484375 175.648438 101.398438 C 172.4375 102.320312 170.699219 104.445312 170.699219 107.113281 C 170.589844 109.886719 172.65625 112.390625 176.191406 112.390625 C 179.566406 112.390625 181.6875 110.324219 181.6875 107.4375 Z M 171.515625 93.667969 C 171.515625 96.445312 173.582031 97.914062 176.738281 98.785156 C 179.074219 97.96875 180.925781 96.28125 180.925781 93.777344 C 180.925781 91.546875 179.621094 89.261719 176.300781 89.261719 C 173.199219 89.261719 171.515625 91.273438 171.515625 93.667969 Z M 171.515625 93.667969 " fill-opacity="1" fill-rule="nonzero"/><path fill="#ffffff" d="M 189.195312 97.476562 C 189.195312 95.898438 190.226562 94.8125 191.695312 94.8125 C 193.164062 94.8125 194.144531 95.898438 194.199219 97.476562 C 194.199219 98.949219 193.21875 100.089844 191.695312 100.089844 C 190.226562 100.144531 189.195312 98.949219 189.195312 97.476562 Z M 189.195312 112.445312 C 189.195312 110.867188 190.226562 109.777344 191.695312 109.777344 C 193.164062 109.777344 194.144531 110.867188 194.199219 112.445312 C 194.199219 113.914062 193.21875 115.058594 191.695312 115.058594 C 190.226562 115.113281 189.195312 113.96875 189.195312 112.445312 Z M 189.195312 112.445312 " fill-opacity="1" fill-rule="nonzero"/><path fill="#ffffff" d="M 209.050781 114.621094 L 209.050781 107.113281 L 196.320312 107.113281 L 196.320312 104.664062 L 208.503906 87.027344 L 212.53125 87.027344 L 212.53125 104.171875 L 216.339844 104.171875 L 216.339844 107.113281 L 212.53125 107.113281 L 212.53125 114.621094 Z M 209.050781 104.171875 L 209.050781 94.972656 C 209.050781 93.503906 209.105469 92.089844 209.160156 90.621094 L 209.050781 90.621094 C 208.234375 92.253906 207.527344 93.394531 206.765625 94.703125 L 200.074219 104.0625 L 200.074219 104.171875 Z M 209.050781 104.171875 " fill-opacity="1" fill-rule="nonzero"/><path fill="#ffffff" d="M 235.542969 90.183594 L 225.097656 90.183594 L 224.0625 97.261719 C 224.71875 97.152344 225.261719 97.097656 226.292969 97.097656 C 228.417969 97.097656 230.484375 97.585938 232.167969 98.566406 C 234.292969 99.820312 236.085938 102.160156 236.085938 105.640625 C 236.085938 111.03125 231.84375 115.058594 225.914062 115.058594 C 222.921875 115.058594 220.417969 114.1875 219.113281 113.371094 L 220.039062 110.539062 C 221.179688 111.195312 223.410156 112.066406 225.914062 112.066406 C 229.394531 112.066406 232.386719 109.777344 232.386719 106.078125 C 232.332031 102.484375 229.992188 99.980469 224.5 99.980469 C 222.921875 99.980469 221.726562 100.144531 220.691406 100.253906 L 222.488281 87.027344 L 235.597656 87.027344 L 235.597656 90.183594 Z M 235.542969 90.183594 " fill-opacity="1" fill-rule="nonzero"/><path fill="#ffffff" d="M 191.425781 55.1875 L 191.425781 52.628906 C 191.425781 50.398438 189.628906 48.601562 187.453125 48.601562 C 185.222656 48.601562 183.480469 50.398438 183.480469 52.628906 L 183.480469 55.1875 C 182.992188 55.625 182.71875 56.277344 182.71875 56.984375 L 182.71875 61.609375 C 182.71875 62.972656 183.808594 64.113281 185.167969 64.113281 L 189.738281 64.113281 C 191.097656 64.113281 192.1875 63.027344 192.1875 61.609375 L 192.1875 56.984375 C 192.1875 56.277344 191.859375 55.625 191.425781 55.1875 Z M 184.515625 52.628906 C 184.515625 50.996094 185.820312 49.691406 187.453125 49.691406 C 189.085938 49.691406 190.390625 50.996094 190.390625 52.628906 L 190.390625 54.589844 C 190.171875 54.535156 189.957031 54.535156 189.792969 54.535156 L 185.222656 54.535156 C 185.003906 54.535156 184.789062 54.589844 184.625 54.589844 L 184.625 52.628906 Z M 184.515625 52.628906 " fill-opacity="1" fill-rule="nonzero"/><path fill="#1a1a1a" d="M 257.195312 328.738281 C 257.195312 329.40625 257.128906 330.066406 257 330.722656 C 256.871094 331.378906 256.675781 332.015625 256.421875 332.632812 C 256.167969 333.25 255.859375 333.835938 255.488281 334.390625 C 255.121094 334.949219 254.699219 335.460938 254.230469 335.933594 C 253.761719 336.40625 253.25 336.828125 252.695312 337.199219 C 252.144531 337.570312 251.5625 337.882812 250.949219 338.140625 C 250.332031 338.394531 249.699219 338.589844 249.050781 338.71875 C 248.398438 338.851562 247.738281 338.914062 247.074219 338.914062 C 246.410156 338.914062 245.753906 338.851562 245.101562 338.71875 C 244.449219 338.589844 243.816406 338.394531 243.203125 338.140625 C 242.589844 337.882812 242.007812 337.570312 241.453125 337.199219 C 240.902344 336.828125 240.390625 336.40625 239.921875 335.933594 C 239.449219 335.460938 239.03125 334.949219 238.664062 334.390625 C 238.292969 333.835938 237.980469 333.25 237.726562 332.632812 C 237.472656 332.015625 237.28125 331.378906 237.152344 330.722656 C 237.023438 330.066406 236.957031 329.40625 236.957031 328.738281 C 236.957031 328.070312 237.023438 327.40625 237.152344 326.75 C 237.28125 326.097656 237.472656 325.460938 237.726562 324.84375 C 237.980469 324.226562 238.292969 323.636719 238.664062 323.082031 C 239.03125 322.527344 239.449219 322.011719 239.921875 321.539062 C 240.390625 321.066406 240.902344 320.644531 241.453125 320.273438 C 242.007812 319.902344 242.589844 319.589844 243.203125 319.335938 C 243.816406 319.078125 244.449219 318.886719 245.101562 318.753906 C 245.753906 318.625 246.410156 318.558594 247.074219 318.558594 C 247.738281 318.558594 248.398438 318.625 249.050781 318.753906 C 249.699219 318.886719 250.332031 319.078125 250.949219 319.335938 C 251.5625 319.589844 252.144531 319.902344 252.695312 320.273438 C 253.25 320.644531 253.761719 321.066406 254.230469 321.539062 C 254.699219 322.011719 255.121094 322.527344 255.488281 323.082031 C 255.859375 323.636719 256.167969 324.226562 256.421875 324.84375 C 256.675781 325.460938 256.871094 326.097656 257 326.75 C 257.128906 327.40625 257.195312 328.070312 257.195312 328.738281 Z M 257.195312 328.738281 " fill-opacity="0.53" fill-rule="nonzero"/><path fill="#ffffff" d="M 248.925781 328.738281 C 248.925781 328.984375 248.878906 329.21875 248.789062 329.445312 C 248.695312 329.671875 248.566406 329.871094 248.398438 330.046875 C 248.230469 330.21875 248.035156 330.351562 247.816406 330.445312 C 247.597656 330.539062 247.367188 330.585938 247.128906 330.585938 C 246.890625 330.585938 246.664062 330.539062 246.441406 330.445312 C 246.222656 330.351562 246.027344 330.21875 245.859375 330.046875 C 245.691406 329.871094 245.5625 329.671875 245.472656 329.445312 C 245.378906 329.21875 245.335938 328.984375 245.335938 328.738281 C 245.335938 328.492188 245.378906 328.253906 245.472656 328.027344 C 245.5625 327.800781 245.691406 327.601562 245.859375 327.429688 C 246.027344 327.253906 246.222656 327.121094 246.441406 327.027344 C 246.664062 326.933594 246.890625 326.886719 247.128906 326.886719 C 247.367188 326.886719 247.597656 326.933594 247.816406 327.027344 C 248.035156 327.121094 248.230469 327.253906 248.398438 327.429688 C 248.566406 327.601562 248.695312 327.800781 248.789062 328.027344 C 248.878906 328.253906 248.925781 328.492188 248.925781 328.738281 Z M 248.925781 328.738281 " fill-opacity="1" fill-rule="nonzero"/><path fill="#ffffff" d="M 250.9375 325.636719 L 250.011719 325.636719 C 249.46875 324.601562 248.382812 323.839844 247.128906 323.839844 C 245.878906 323.839844 244.789062 324.546875 244.246094 325.636719 L 243.320312 325.636719 C 242.613281 325.636719 242.070312 326.179688 242.070312 326.886719 L 242.070312 330.640625 C 242.070312 331.351562 242.613281 331.894531 243.320312 331.894531 L 250.882812 331.894531 C 251.589844 331.894531 252.132812 331.351562 252.132812 330.640625 L 252.132812 326.886719 C 252.1875 326.179688 251.589844 325.636719 250.9375 325.636719 Z M 247.347656 331.023438 C 245.933594 331.1875 244.734375 329.933594 244.84375 328.519531 C 244.953125 327.429688 245.824219 326.558594 246.859375 326.453125 C 248.273438 326.289062 249.46875 327.539062 249.359375 328.953125 C 249.304688 330.042969 248.433594 330.914062 247.347656 331.023438 Z M 247.347656 331.023438 " fill-opacity="1" fill-rule="nonzero"/><path fill="#1a1a1a" d="M 137.949219 329.0625 C 137.949219 329.730469 137.882812 330.394531 137.753906 331.050781 C 137.625 331.703125 137.433594 332.339844 137.179688 332.957031 C 136.925781 333.574219 136.613281 334.164062 136.242188 334.71875 C 135.875 335.273438 135.457031 335.789062 134.984375 336.261719 C 134.515625 336.734375 134.003906 337.15625 133.453125 337.527344 C 132.898438 337.898438 132.316406 338.210938 131.703125 338.46875 C 131.089844 338.722656 130.457031 338.914062 129.804688 339.046875 C 129.152344 339.175781 128.496094 339.242188 127.832031 339.242188 C 127.167969 339.242188 126.507812 339.175781 125.855469 339.046875 C 125.207031 338.914062 124.574219 338.722656 123.957031 338.46875 C 123.34375 338.210938 122.761719 337.898438 122.210938 337.527344 C 121.65625 337.15625 121.144531 336.734375 120.675781 336.261719 C 120.207031 335.789062 119.785156 335.273438 119.417969 334.71875 C 119.046875 334.164062 118.738281 333.574219 118.484375 332.957031 C 118.226562 332.339844 118.035156 331.703125 117.90625 331.050781 C 117.777344 330.394531 117.710938 329.730469 117.710938 329.0625 C 117.710938 328.394531 117.777344 327.734375 117.90625 327.078125 C 118.035156 326.421875 118.226562 325.785156 118.484375 325.167969 C 118.738281 324.550781 119.046875 323.964844 119.417969 323.410156 C 119.785156 322.855469 120.207031 322.339844 120.675781 321.867188 C 121.144531 321.394531 121.65625 320.972656 122.210938 320.601562 C 122.761719 320.230469 123.34375 319.917969 123.957031 319.660156 C 124.574219 319.40625 125.207031 319.210938 125.855469 319.082031 C 126.507812 318.953125 127.167969 318.886719 127.832031 318.886719 C 128.496094 318.886719 129.152344 318.953125 129.804688 319.082031 C 130.457031 319.210938 131.089844 319.40625 131.703125 319.660156 C 132.316406 319.917969 132.898438 320.230469 133.453125 320.601562 C 134.003906 320.972656 134.515625 321.394531 134.984375 321.867188 C 135.457031 322.339844 135.875 322.855469 136.242188 323.410156 C 136.613281 323.964844 136.925781 324.550781 137.179688 325.167969 C 137.433594 325.785156 137.625 326.421875 137.753906 327.078125 C 137.882812 327.734375 137.949219 328.394531 137.949219 329.0625 Z M 137.949219 329.0625 " fill-opacity="0.53" fill-rule="nonzero"/><path fill="#ffffff" d="M 126.363281 333.960938 L 126.363281 335.050781 C 126.363281 335.324219 126.578125 335.59375 126.851562 335.59375 L 128.648438 335.59375 C 128.917969 335.59375 129.136719 335.378906 129.136719 335.050781 L 129.136719 333.960938 Z M 126.363281 333.960938 " fill-opacity="1" fill-rule="nonzero"/><path fill="#ffffff" d="M 130.824219 324.003906 L 124.785156 324.003906 C 124.621094 324.003906 124.566406 324.164062 124.621094 324.273438 L 126.253906 327.703125 C 126.308594 327.867188 126.363281 328.03125 126.363281 328.191406 L 126.363281 333.800781 L 129.191406 333.800781 L 129.191406 328.191406 C 129.191406 328.03125 129.246094 327.867188 129.300781 327.703125 L 130.933594 324.273438 C 131.039062 324.164062 130.984375 324.003906 130.824219 324.003906 Z M 128.484375 330.914062 C 128.484375 331.242188 128.210938 331.566406 127.832031 331.566406 L 127.722656 331.566406 C 127.394531 331.566406 127.070312 331.296875 127.070312 330.914062 L 127.070312 329.664062 C 127.070312 329.335938 127.339844 329.007812 127.722656 329.007812 L 127.832031 329.007812 C 128.15625 329.007812 128.484375 329.28125 128.484375 329.664062 Z M 128.484375 330.914062 " fill-opacity="1" fill-rule="nonzero"/><path fill="#ffffff" d="M 130.933594 323.675781 L 124.675781 323.675781 C 124.566406 323.675781 124.457031 323.566406 124.457031 323.457031 L 124.457031 323.132812 C 124.457031 322.804688 124.730469 322.476562 125.109375 322.476562 L 130.496094 322.476562 C 130.824219 322.476562 131.148438 322.75 131.148438 323.132812 L 131.148438 323.457031 C 131.148438 323.566406 131.039062 323.675781 130.933594 323.675781 Z M 130.933594 323.675781 " fill-opacity="1" fill-rule="nonzero"/><path fill="#ffffff" d="M 215.035156 345.121094 L 159.871094 345.121094 C 159.273438 345.121094 158.785156 344.628906 158.785156 344.03125 C 158.785156 343.433594 159.273438 342.941406 159.871094 342.941406 L 214.980469 342.941406 C 215.578125 342.941406 216.066406 343.433594 216.066406 344.03125 C 216.066406 344.628906 215.632812 345.121094 215.035156 345.121094 Z M 215.035156 345.121094 " fill-opacity="1" fill-rule="nonzero"/><path fill="#ffffff" d="M 252.949219 173.785156 L 121.847656 173.785156 C 117.929688 173.785156 114.773438 170.628906 114.773438 166.707031 L 114.773438 143.085938 C 114.773438 139.167969 117.929688 136.011719 121.847656 136.011719 L 253.003906 136.011719 C 256.921875 136.011719 260.078125 139.167969 260.078125 143.085938 L 260.078125 166.707031 C 260.023438 170.628906 256.867188 173.785156 252.949219 173.785156 Z M 252.949219 173.785156 " fill-opacity="0.81" fill-rule="nonzero"/><path fill="#57b7c5" d="M 130.277344 150.925781 L 122.988281 150.925781 C 121.628906 150.925781 120.488281 149.78125 120.488281 148.421875 L 120.488281 142.597656 C 120.488281 141.238281 121.628906 140.09375 122.988281 140.09375 L 130.277344 140.09375 C 131.640625 140.09375 132.78125 141.238281 132.78125 142.597656 L 132.78125 148.421875 C 132.78125 149.835938 131.691406 150.925781 130.277344 150.925781 Z M 130.277344 150.925781 " fill-opacity="1" fill-rule="nonzero"/><path fill="#e6e6e6" d="M 126.632812 147.984375 L 122.773438 147.984375 L 122.773438 143.035156 L 130.550781 143.035156 L 130.550781 147.984375 Z M 126.632812 147.984375 " fill-opacity="1" fill-rule="nonzero"/><path fill="#000000" d="M 130.550781 147.933594 L 130.550781 147.984375 L 122.773438 147.984375 L 122.773438 147.933594 L 126.632812 144.71875 Z M 130.550781 147.933594 " fill-opacity="0.08" fill-rule="nonzero"/><path fill="#cccccc" d="M 126.632812 144.773438 L 122.773438 147.984375 L 130.550781 147.984375 Z M 126.632812 144.773438 " fill-opacity="1" fill-rule="nonzero"/><path fill="#000000" d="M 130.550781 143.035156 L 130.550781 143.25 L 129.898438 143.851562 L 127.285156 146.136719 L 127.015625 146.351562 C 126.796875 146.515625 126.523438 146.515625 126.308594 146.351562 L 126.035156 146.136719 L 123.425781 143.851562 L 122.773438 143.25 L 122.773438 143.035156 Z M 130.550781 143.035156 " fill-opacity="0.1" fill-rule="nonzero"/><path fill="#f2f2f2" d="M 130.550781 143.035156 L 130.550781 143.25 L 129.898438 143.796875 L 127.285156 145.917969 L 127.015625 146.136719 C 126.796875 146.300781 126.523438 146.300781 126.308594 146.136719 L 126.035156 145.917969 L 123.425781 143.796875 L 122.773438 143.25 L 122.773438 143.035156 Z M 130.550781 143.035156 " fill-opacity="1" fill-rule="nonzero"/><path fill="#57b7c5" d="M 167.488281 146.734375 L 137.1875 146.734375 C 136.535156 146.734375 135.992188 146.191406 135.992188 145.484375 C 135.992188 144.828125 136.535156 144.230469 137.1875 144.230469 L 167.488281 144.230469 C 168.140625 144.230469 168.683594 144.773438 168.683594 145.484375 C 168.738281 146.191406 168.195312 146.734375 167.488281 146.734375 Z M 167.488281 146.734375 " fill-opacity="1" fill-rule="nonzero"/><path fill="#808080" d="M 168.683594 157.457031 L 120.597656 157.457031 C 119.941406 157.457031 119.398438 156.914062 119.398438 156.203125 C 119.398438 155.550781 119.941406 154.953125 120.597656 154.953125 L 168.683594 154.953125 C 169.339844 154.953125 169.882812 155.496094 169.882812 156.203125 C 169.882812 156.914062 169.339844 157.457031 168.683594 157.457031 Z M 168.683594 157.457031 " fill-opacity="1" fill-rule="nonzero"/><path fill="#808080" d="M 148.011719 162.519531 L 120.597656 162.519531 C 119.941406 162.519531 119.398438 161.972656 119.398438 161.265625 C 119.398438 160.613281 119.941406 160.015625 120.597656 160.015625 L 148.011719 160.015625 C 148.667969 160.015625 149.210938 160.558594 149.210938 161.265625 C 149.210938 161.972656 148.667969 162.519531 148.011719 162.519531 Z M 148.011719 162.519531 " fill-opacity="1" fill-rule="nonzero"/><path fill="#808080" d="M 180.164062 162.519531 L 152.746094 162.519531 C 152.09375 162.519531 151.550781 161.972656 151.550781 161.265625 C 151.550781 160.613281 152.09375 160.015625 152.746094 160.015625 L 180.164062 160.015625 C 180.816406 160.015625 181.359375 160.558594 181.359375 161.265625 C 181.359375 161.972656 180.816406 162.519531 180.164062 162.519531 Z M 180.164062 162.519531 " fill-opacity="1" fill-rule="nonzero"/><path fill="#ffffff" d="M 252.949219 225.871094 L 121.847656 225.871094 C 117.929688 225.871094 114.773438 222.714844 114.773438 218.796875 L 114.773438 195.175781 C 114.773438 191.253906 117.929688 188.097656 121.847656 188.097656 L 253.003906 188.097656 C 256.921875 188.097656 260.078125 191.253906 260.078125 195.175781 L 260.078125 218.796875 C 260.023438 222.714844 256.867188 225.871094 252.949219 225.871094 Z M 252.949219 225.871094 " fill-opacity="0.81" fill-rule="nonzero"/><path fill="#68bc5a" d="M 130.277344 203.011719 L 122.988281 203.011719 C 121.628906 203.011719 120.488281 201.867188 120.488281 200.507812 L 120.488281 194.683594 C 120.488281 193.324219 121.628906 192.179688 122.988281 192.179688 L 130.277344 192.179688 C 131.640625 192.179688 132.78125 193.324219 132.78125 194.683594 L 132.78125 200.507812 C 132.78125 201.921875 131.691406 203.011719 130.277344 203.011719 Z M 130.277344 203.011719 " fill-opacity="1" fill-rule="nonzero"/><path fill="#ffffff" d="M 126.632812 194.140625 C 124.457031 194.140625 122.664062 195.71875 122.664062 197.679688 C 122.664062 198.386719 122.933594 199.09375 123.316406 199.636719 L 122.824219 200.671875 L 124.242188 200.507812 C 124.894531 200.945312 125.710938 201.160156 126.578125 201.160156 C 128.753906 201.160156 130.550781 199.582031 130.550781 197.625 C 130.605469 195.71875 128.863281 194.140625 126.632812 194.140625 Z M 126.632812 194.140625 " fill-opacity="1" fill-rule="nonzero"/><path fill="#68bc5a" d="M 167.488281 198.820312 L 137.1875 198.820312 C 136.535156 198.820312 135.992188 198.277344 135.992188 197.570312 C 135.992188 196.914062 136.535156 196.316406 137.1875 196.316406 L 167.488281 196.316406 C 168.140625 196.316406 168.683594 196.863281 168.683594 197.570312 C 168.738281 198.277344 168.195312 198.820312 167.488281 198.820312 Z M 167.488281 198.820312 " fill-opacity="1" fill-rule="nonzero"/><path fill="#808080" d="M 146.109375 211.121094 L 120.542969 211.121094 C 119.886719 211.121094 119.34375 210.578125 119.34375 209.871094 C 119.34375 209.214844 119.886719 208.617188 120.542969 208.617188 L 146.109375 208.617188 C 146.761719 208.617188 147.304688 209.160156 147.304688 209.871094 C 147.359375 210.578125 146.816406 211.121094 146.109375 211.121094 Z M 146.109375 211.121094 " fill-opacity="1" fill-rule="nonzero"/><path fill="#808080" d="M 148.011719 216.183594 L 120.597656 216.183594 C 119.941406 216.183594 119.398438 215.636719 119.398438 214.929688 C 119.398438 214.277344 119.941406 213.679688 120.597656 213.679688 L 148.011719 213.679688 C 148.667969 213.679688 149.210938 214.222656 149.210938 214.929688 C 149.210938 215.636719 148.667969 216.183594 148.011719 216.183594 Z M 148.011719 216.183594 " fill-opacity="1" fill-rule="nonzero"/><path fill="#808080" d="M 165.800781 216.183594 L 153.886719 216.183594 C 153.234375 216.183594 152.691406 215.636719 152.691406 214.929688 C 152.691406 214.277344 153.234375 213.679688 153.886719 213.679688 L 165.800781 213.679688 C 166.453125 213.679688 167 214.222656 167 214.929688 C 167 215.636719 166.453125 216.183594 165.800781 216.183594 Z M 165.800781 216.183594 " fill-opacity="1" fill-rule="nonzero"/><path fill="#808080" d="M 179.566406 211.121094 L 152.148438 211.121094 C 151.496094 211.121094 150.949219 210.578125 150.949219 209.871094 C 150.949219 209.214844 151.496094 208.617188 152.148438 208.617188 L 179.566406 208.617188 C 180.21875 208.617188 180.761719 209.160156 180.761719 209.871094 C 180.816406 210.578125 180.273438 211.121094 179.566406 211.121094 Z M 179.566406 211.121094 " fill-opacity="1" fill-rule="nonzero"/><path fill="#ffffff" d="M 252.949219 278.011719 L 121.847656 278.011719 C 117.929688 278.011719 114.773438 274.855469 114.773438 270.9375 L 114.773438 247.316406 C 114.773438 243.394531 117.929688 240.238281 121.847656 240.238281 L 253.003906 240.238281 C 256.921875 240.238281 260.078125 243.394531 260.078125 247.316406 L 260.078125 270.9375 C 260.023438 274.800781 256.867188 278.011719 252.949219 278.011719 Z M 252.949219 278.011719 " fill-opacity="0.81" fill-rule="nonzero"/><path fill="#f2f2f2" d="M 130.277344 255.152344 L 122.988281 255.152344 C 121.628906 255.152344 120.488281 254.007812 120.488281 252.648438 L 120.488281 246.824219 C 120.488281 245.464844 121.628906 244.320312 122.988281 244.320312 L 130.277344 244.320312 C 131.640625 244.320312 132.78125 245.464844 132.78125 246.824219 L 132.78125 252.648438 C 132.78125 254.007812 131.691406 255.152344 130.277344 255.152344 Z M 130.277344 255.152344 " fill-opacity="1" fill-rule="nonzero"/><path fill="#f3cc63" d="M 129.027344 248.402344 C 129.027344 248.722656 128.96875 249.027344 128.84375 249.320312 C 128.722656 249.613281 128.550781 249.871094 128.328125 250.097656 C 128.101562 250.320312 127.84375 250.496094 127.550781 250.617188 C 127.257812 250.738281 126.953125 250.796875 126.632812 250.796875 C 126.316406 250.796875 126.011719 250.738281 125.71875 250.617188 C 125.425781 250.496094 125.167969 250.320312 124.941406 250.097656 C 124.71875 249.871094 124.542969 249.613281 124.421875 249.320312 C 124.300781 249.027344 124.242188 248.722656 124.242188 248.402344 C 124.242188 248.085938 124.300781 247.78125 124.421875 247.488281 C 124.542969 247.195312 124.71875 246.933594 124.941406 246.710938 C 125.167969 246.484375 125.425781 246.3125 125.71875 246.191406 C 126.011719 246.070312 126.316406 246.007812 126.632812 246.007812 C 126.953125 246.007812 127.257812 246.070312 127.550781 246.191406 C 127.84375 246.3125 128.101562 246.484375 128.328125 246.710938 C 128.550781 246.933594 128.722656 247.195312 128.84375 247.488281 C 128.96875 247.78125 129.027344 248.085938 129.027344 248.402344 Z M 129.027344 248.402344 " fill-opacity="1" fill-rule="nonzero"/><path fill="#f3cc63" d="M 130.007812 253.410156 C 129.464844 252.160156 128.15625 251.289062 126.632812 251.289062 C 125.109375 251.289062 123.804688 252.160156 123.261719 253.410156 Z M 130.007812 253.410156 " fill-opacity="1" fill-rule="nonzero"/><path fill="#f3cc63" d="M 168.683594 250.90625 L 138.382812 250.90625 C 137.730469 250.90625 137.1875 250.363281 137.1875 249.65625 C 137.1875 249.003906 137.730469 248.402344 138.382812 248.402344 L 168.683594 248.402344 C 169.339844 248.402344 169.882812 248.949219 169.882812 249.65625 C 169.882812 250.363281 169.339844 250.90625 168.683594 250.90625 Z M 168.683594 250.90625 " fill-opacity="1" fill-rule="nonzero"/><path fill="#808080" d="M 138.222656 262.5 L 120.542969 262.5 C 119.886719 262.5 119.34375 261.957031 119.34375 261.25 C 119.34375 260.59375 119.886719 259.996094 120.542969 259.996094 L 138.222656 259.996094 C 138.875 259.996094 139.417969 260.539062 139.417969 261.25 C 139.472656 261.957031 138.929688 262.5 138.222656 262.5 Z M 138.222656 262.5 " fill-opacity="1" fill-rule="nonzero"/><path fill="#808080" d="M 137.351562 267.5625 L 120.542969 267.5625 C 119.886719 267.5625 119.34375 267.015625 119.34375 266.308594 C 119.34375 265.65625 119.886719 265.058594 120.542969 265.058594 L 137.351562 265.058594 C 138.003906 265.058594 138.546875 265.601562 138.546875 266.308594 C 138.601562 267.015625 138.058594 267.5625 137.351562 267.5625 Z M 137.351562 267.5625 " fill-opacity="1" fill-rule="nonzero"/><path fill="#808080" d="M 162.648438 267.5625 L 142.574219 267.5625 C 141.921875 267.5625 141.375 267.015625 141.375 266.308594 C 141.375 265.65625 141.921875 265.058594 142.574219 265.058594 L 162.648438 265.058594 C 163.300781 265.058594 163.84375 265.601562 163.84375 266.308594 C 163.84375 267.015625 163.300781 267.5625 162.648438 267.5625 Z M 162.648438 267.5625 " fill-opacity="1" fill-rule="nonzero"/><path fill="#808080" d="M 172.382812 262.5 L 144.96875 262.5 C 144.3125 262.5 143.769531 261.957031 143.769531 261.25 C 143.769531 260.59375 144.3125 259.996094 144.96875 259.996094 L 172.382812 259.996094 C 173.039062 259.996094 173.582031 260.539062 173.582031 261.25 C 173.636719 261.957031 173.089844 262.5 172.382812 262.5 Z M 172.382812 262.5 " fill-opacity="1" fill-rule="nonzero"/></svg>