<svg xmlns="http://www.w3.org/2000/svg" xmlns:xlink="http://www.w3.org/1999/xlink" width="500" zoomAndPan="magnify" viewBox="0 0 375 374.999991" height="500" preserveAspectRatio="xMidYMid meet" version="1.0"><defs><clipPath id="f58c8c0b8e"><path d="M 17.128906 19.472656 L 187.984375 19.472656 L 187.984375 164.785156 L 17.128906 164.785156 Z M 17.128906 19.472656 " clip-rule="nonzero"/></clipPath><clipPath id="2ec3cd084f"><path d="M 34.378906 19.472656 L 170.25 19.472656 C 174.824219 19.472656 179.210938 21.289062 182.449219 24.523438 C 185.683594 27.757812 187.5 32.144531 187.5 36.722656 L 187.5 147.535156 C 187.5 152.109375 185.683594 156.496094 182.449219 159.730469 C 179.210938 162.964844 174.824219 164.785156 170.25 164.785156 L 34.378906 164.785156 C 29.800781 164.785156 25.414062 162.964844 22.179688 159.730469 C 18.945312 156.496094 17.128906 152.109375 17.128906 147.535156 L 17.128906 36.722656 C 17.128906 32.144531 18.945312 27.757812 22.179688 24.523438 C 25.414062 21.289062 29.800781 19.472656 34.378906 19.472656 Z M 34.378906 19.472656 " clip-rule="nonzero"/></clipPath><clipPath id="76835f07ca"><path d="M 0.128906 0.472656 L 170.679688 0.472656 L 170.679688 145.785156 L 0.128906 145.785156 Z M 0.128906 0.472656 " clip-rule="nonzero"/></clipPath><clipPath id="fb651d11ca"><path d="M 17.378906 0.472656 L 153.25 0.472656 C 157.824219 0.472656 162.210938 2.289062 165.449219 5.523438 C 168.683594 8.757812 170.5 13.144531 170.5 17.722656 L 170.5 128.535156 C 170.5 133.109375 168.683594 137.496094 165.449219 140.730469 C 162.210938 143.964844 157.824219 145.785156 153.25 145.785156 L 17.378906 145.785156 C 12.800781 145.785156 8.414062 143.964844 5.179688 140.730469 C 1.945312 137.496094 0.128906 133.109375 0.128906 128.535156 L 0.128906 17.722656 C 0.128906 13.144531 1.945312 8.757812 5.179688 5.523438 C 8.414062 2.289062 12.800781 0.472656 17.378906 0.472656 Z M 17.378906 0.472656 " clip-rule="nonzero"/></clipPath><clipPath id="fde985a722"><rect x="0" width="171" y="0" height="146"/></clipPath><clipPath id="44ff45d182"><path d="M 17.128906 187.5 L 187.636719 187.5 L 187.636719 337.5 L 17.128906 337.5 Z M 17.128906 187.5 " clip-rule="nonzero"/></clipPath><clipPath id="bbea96cdb9"><path d="M 34.378906 187.5 L 170.25 187.5 C 174.824219 187.5 179.210938 189.316406 182.449219 192.550781 C 185.683594 195.789062 187.5 200.175781 187.5 204.75 L 187.5 320.25 C 187.5 324.824219 185.683594 329.210938 182.449219 332.449219 C 179.210938 335.683594 174.824219 337.5 170.25 337.5 L 34.378906 337.5 C 29.800781 337.5 25.414062 335.683594 22.179688 332.449219 C 18.945312 329.210938 17.128906 324.824219 17.128906 320.25 L 17.128906 204.75 C 17.128906 200.175781 18.945312 195.789062 22.179688 192.550781 C 25.414062 189.316406 29.800781 187.5 34.378906 187.5 Z M 34.378906 187.5 " clip-rule="nonzero"/></clipPath><clipPath id="0c27d82510"><path d="M 0.128906 0.5 L 170.636719 0.5 L 170.636719 150.5 L 0.128906 150.5 Z M 0.128906 0.5 " clip-rule="nonzero"/></clipPath><clipPath id="080cc6fd70"><path d="M 17.378906 0.5 L 153.25 0.5 C 157.824219 0.5 162.210938 2.316406 165.449219 5.550781 C 168.683594 8.789062 170.5 13.175781 170.5 17.75 L 170.5 133.25 C 170.5 137.824219 168.683594 142.210938 165.449219 145.449219 C 162.210938 148.683594 157.824219 150.5 153.25 150.5 L 17.378906 150.5 C 12.800781 150.5 8.414062 148.683594 5.179688 145.449219 C 1.945312 142.210938 0.128906 137.824219 0.128906 133.25 L 0.128906 17.75 C 0.128906 13.175781 1.945312 8.789062 5.179688 5.550781 C 8.414062 2.316406 12.800781 0.5 17.378906 0.5 Z M 17.378906 0.5 " clip-rule="nonzero"/></clipPath><clipPath id="c67deabb05"><rect x="0" width="171" y="0" height="151"/></clipPath><clipPath id="73e03d6daf"><path d="M 209.132812 19.472656 L 341.5 19.472656 L 341.5 337.972656 L 209.132812 337.972656 Z M 209.132812 19.472656 " clip-rule="nonzero"/></clipPath><clipPath id="aafda5b7ff"><path d="M 226.382812 19.472656 L 324.25 19.472656 C 328.824219 19.472656 333.210938 21.289062 336.445312 24.523438 C 339.683594 27.757812 341.5 32.144531 341.5 36.722656 L 341.5 320.25 C 341.5 324.824219 339.683594 329.210938 336.445312 332.449219 C 333.210938 335.683594 328.824219 337.5 324.25 337.5 L 226.382812 337.5 C 221.808594 337.5 217.421875 335.683594 214.1875 332.449219 C 210.953125 329.210938 209.132812 324.824219 209.132812 320.25 L 209.132812 36.722656 C 209.132812 32.144531 210.953125 27.757812 214.1875 24.523438 C 217.421875 21.289062 221.808594 19.472656 226.382812 19.472656 Z M 226.382812 19.472656 " clip-rule="nonzero"/></clipPath><clipPath id="283bf3e5da"><path d="M 0.132812 0.472656 L 132.5 0.472656 L 132.5 318.679688 L 0.132812 318.679688 Z M 0.132812 0.472656 " clip-rule="nonzero"/></clipPath><clipPath id="0c73761d6b"><path d="M 17.382812 0.472656 L 115.25 0.472656 C 119.824219 0.472656 124.210938 2.289062 127.445312 5.523438 C 130.683594 8.757812 132.5 13.144531 132.5 17.722656 L 132.5 301.25 C 132.5 305.824219 130.683594 310.210938 127.445312 313.449219 C 124.210938 316.683594 119.824219 318.5 115.25 318.5 L 17.382812 318.5 C 12.808594 318.5 8.421875 316.683594 5.1875 313.449219 C 1.953125 310.210938 0.132812 305.824219 0.132812 301.25 L 0.132812 17.722656 C 0.132812 13.144531 1.953125 8.757812 5.1875 5.523438 C 8.421875 2.289062 12.808594 0.472656 17.382812 0.472656 Z M 17.382812 0.472656 " clip-rule="nonzero"/></clipPath><clipPath id="40a22f8989"><rect x="0" width="133" y="0" height="319"/></clipPath></defs><g clip-path="url(#f58c8c0b8e)"><g clip-path="url(#2ec3cd084f)"><g transform="matrix(1, 0, 0, 1, 17, 19)"><g clip-path="url(#fde985a722)"><g clip-path="url(#76835f07ca)"><g clip-path="url(#fb651d11ca)"><path fill="#003368" d="M 0.128906 0.472656 L 170.414062 0.472656 L 170.414062 145.785156 L 0.128906 145.785156 Z M 0.128906 0.472656 " fill-opacity="1" fill-rule="nonzero"/></g></g></g></g></g></g><g clip-path="url(#44ff45d182)"><g clip-path="url(#bbea96cdb9)"><g transform="matrix(1, 0, 0, 1, 17, 187)"><g clip-path="url(#c67deabb05)"><g clip-path="url(#0c27d82510)"><g clip-path="url(#080cc6fd70)"><path fill="#0c9674" d="M 0.128906 0.5 L 170.636719 0.5 L 170.636719 150.5 L 0.128906 150.5 Z M 0.128906 0.5 " fill-opacity="1" fill-rule="nonzero"/></g></g></g></g></g></g><g clip-path="url(#73e03d6daf)"><g clip-path="url(#aafda5b7ff)"><g transform="matrix(1, 0, 0, 1, 209, 19)"><g clip-path="url(#40a22f8989)"><g clip-path="url(#283bf3e5da)"><g clip-path="url(#0c73761d6b)"><path fill="#c4213f" d="M 0.132812 0.472656 L 132.5 0.472656 L 132.5 318.457031 L 0.132812 318.457031 Z M 0.132812 0.472656 " fill-opacity="1" fill-rule="nonzero"/></g></g></g></g></g></g></svg>